<svg xmlns="http://www.w3.org/2000/svg" viewBox="0 0 1200 1200" width="1200" height="1200" role="img" aria-label="Mini Vase">
  <defs>
    <linearGradient id="surface" x1="0" y1="0" x2="1" y2="1">
      <stop offset="0" stop-color="#fafafa"/>
      <stop offset="1" stop-color="#cbd5e1"/>
    </linearGradient>
    <linearGradient id="object" x1="0" y1="0" x2="1" y2="1">
      <stop offset="0" stop-color="#ffffff"/>
      <stop offset=".5" stop-color="#d6dae0"/>
      <stop offset="1" stop-color="#8b95a1"/>
    </linearGradient>
    <filter id="drop" x="-20%" y="-20%" width="140%" height="140%">
      <feDropShadow dx="0" dy="34" stdDeviation="36" flood-color="#020617" flood-opacity=".24"/>
    </filter>
  </defs>
  <rect width="1200" height="1200" fill="url(#surface)"/>
  <rect x="104" y="815" width="992" height="226" rx="22" fill="rgba(255,255,255,.58)"/>
  <path d="M116 776c177-75 350-83 520-24 171 59 322 49 451-30v318H116V776Z" fill="rgba(255,255,255,.48)"/>
  <g transform="translate(88 42) scale(1.02)" filter="url(#drop)">
    <path d="M386 244h252c-55 81-66 144-51 212 14 65 68 122 68 211 0 87-66 142-145 142s-145-55-145-142c0-89 54-146 68-211 15-68 4-131-47-212Z" fill="url(#object)" stroke="#171717" stroke-width="7"/><ellipse cx="512" cy="247" rx="126" ry="42" fill="#f8fafc" stroke="#171717" stroke-width="7"/><ellipse cx="512" cy="247" rx="71" ry="20" fill="#d4d4d8"/>
  </g>
  <g font-family="Inter, Arial, sans-serif" letter-spacing="0">
    <text x="78" y="101" font-size="30" font-weight="700" fill="#18181b">Mini Vase</text>
    <text x="78" y="145" font-size="20" fill="#52525b">Dettaglio materiale realistico</text>
  </g>
</svg>