<svg xmlns="http://www.w3.org/2000/svg" viewBox="0 0 1024 1024" width="1024" height="1024" role="img" aria-label="Mini Vase">
  <defs>
    <linearGradient id="body" x1="0" y1="0" x2="1" y2="1">
      <stop offset="0" stop-color="#ffffff"/>
      <stop offset=".52" stop-color="#d7dce2"/>
      <stop offset="1" stop-color="#8f98a3"/>
    </linearGradient>
    <radialGradient id="glow" cx=".35" cy=".2" r=".8">
      <stop offset="0" stop-color="#ffffff" stop-opacity=".95"/>
      <stop offset=".55" stop-color="#e5e7eb" stop-opacity=".58"/>
      <stop offset="1" stop-color="#111827" stop-opacity=".08"/>
    </radialGradient>
    <filter id="shadow" x="-20%" y="-20%" width="140%" height="140%">
      <feDropShadow dx="0" dy="28" stdDeviation="30" flood-color="#111827" flood-opacity=".22"/>
    </filter>
  </defs>
  <rect width="1024" height="1024" rx="64" fill="#f8fafc"/>
  <path d="M86 800c155-101 321-125 499-72 133 40 243 24 353-45v256H86V800Z" fill="#e5e7eb"/>
  <circle cx="314" cy="227" r="186" fill="url(#glow)"/>
  <g filter="url(#shadow)" transform="translate(0 -18)">
    <path d="M386 244h252c-55 81-66 144-51 212 14 65 68 122 68 211 0 87-66 142-145 142s-145-55-145-142c0-89 54-146 68-211 15-68 4-131-47-212Z" fill="url(#body)" stroke="#171717" stroke-width="7"/><ellipse cx="512" cy="247" rx="126" ry="42" fill="#f8fafc" stroke="#171717" stroke-width="7"/><ellipse cx="512" cy="247" rx="71" ry="20" fill="#d4d4d8"/>
  </g>
  <g font-family="Inter, Arial, sans-serif" fill="#111827">
    <text x="88" y="109" font-size="28" font-weight="700" letter-spacing="0">Mini Vase</text>
    <text x="88" y="152" font-size="19" fill="#52525b" letter-spacing="0">Casa e decorazione · 50 x 50 x 48 mm</text>
  </g>
</svg>